<svg xmlns:xlink="http://www.w3.org/1999/xlink" xmlns="http://www.w3.org/2000/svg" class="Menu_logoIcon__3Avvi" width="434" height="86" viewBox="0 0 434 86"><path class="Logo_path__1200m Logo_animatedPath__3Xs-O" d="M91.4164 71.0968C93.3246 79.2297 86.0096 85.9087 75.105 85.9087C63.7916 85.9087 55.068 79.8204 46.3444 74.6861C42.5278 81.0925 35.6216 85.9996 24.399 85.9996C16.4024 85.9996 8.951 81.1834 8.951 72.7778C8.951 63.7362 16.4479 58.4203 25.8984 58.4203C30.5329 58.4203 34.5312 59.329 38.3023 60.6466C38.4841 59.1472 38.5295 57.557 38.5295 56.0576V22.8897C38.5295 18.5733 39.7562 14.8476 41.8463 11.5763C24.808 12.0761 11.2682 25.8885 11.2682 42.9722C11.2682 47.4703 12.1769 51.6958 13.858 55.5124C14.0852 56.0122 14.0398 56.6028 13.54 56.83C12.813 57.1481 11.7226 57.3298 10.9502 57.3298C4.81637 57.3298 0.5 49.833 0.5 42.9722C0.5 22.3445 17.2202 5.66968 37.8934 5.66968H47.4348C51.5695 2.58007 56.6582 0.853516 61.4744 0.853516C66.9721 0.853516 71.1067 2.76182 71.1067 6.26035C71.1067 9.66801 66.9721 11.5763 62.8829 11.5763H53.3869C50.8879 11.5763 50.2973 14.9839 50.2973 18.8005V59.6016C50.2973 61.6007 50.1155 63.7362 49.6157 65.9171C57.1126 70.0063 64.6549 74.0501 75.1959 74.0501C81.0117 74.0501 85.4189 73.0505 90.0079 70.4607C90.5985 70.188 91.2346 70.4152 91.4164 71.0968ZM36.2123 69.6882C33.1227 68.5069 29.9876 67.8708 26.58 67.8708C19.2649 67.8708 16.357 70.5515 16.357 74.1864C16.357 77.4123 18.7651 79.5023 23.1723 79.5023C29.6696 79.5023 33.8042 75.4131 36.2123 69.6882ZM79.2851 11.5763C78.3764 11.5763 77.604 10.8493 77.604 9.89518V7.30536C77.604 6.39665 78.331 5.62424 79.2851 5.62424H154.981C155.889 5.62424 156.662 6.35121 156.662 7.30536V9.89518C156.662 10.8039 155.935 11.5763 154.981 11.5763H79.2851ZM300.465 78.4119C300.965 79.1388 300.556 80.093 299.647 80.093H99.9583C99.0495 80.093 98.2771 79.366 98.2771 78.4119V75.822C98.2771 74.9133 99.0041 74.1409 99.9583 74.1409H295.694C296.876 74.1409 298.011 74.7316 298.693 75.7312L300.465 78.4119ZM183.241 11.5763C182.333 11.5763 181.56 10.8493 181.56 9.89518V7.30536C181.56 6.39665 182.287 5.62424 183.241 5.62424H220.317C221.225 5.62424 221.998 6.35121 221.998 7.30536V9.89518C221.998 10.8039 221.271 11.5763 220.317 11.5763H183.241Z"></path><path class="Logo_path__1200m Logo_animatedPath__3Xs-O" d="M94.8237 60.5557V62.1459C94.8237 63.0546 94.1422 63.8724 93.0972 63.8724H87.7812C84.3735 63.8724 81.8746 61.3735 81.8746 57.9658V43.6082C77.4674 45.9254 70.8338 50.3327 70.8338 54.2401C70.8338 56.5573 73.0147 57.5569 74.7412 57.5569C76.0589 57.5569 77.5582 57.3297 78.5578 56.8754C78.8759 56.7845 79.2393 56.8754 79.2393 57.1934C79.3302 57.5115 79.3302 57.875 79.3302 58.2839C79.3302 62.2822 76.0134 64.2814 70.8338 64.2814C65.6996 64.2814 59.793 61.2826 59.793 54.2401C59.793 41.9271 81.92 40.2914 81.92 33.7033C81.92 30.6137 79.1939 28.978 75.9226 28.978C73.4236 28.978 71.5153 30.6591 71.4244 33.0672C71.4244 33.9759 71.6516 35.0664 72.3331 36.2477C72.5149 36.4749 72.2423 36.7475 72.0151 36.8383C67.199 39.2464 62.8826 35.9296 62.8826 32.3402C62.8826 26.1156 70.1068 22.0264 76.6041 22.0264C84.8279 22.0264 91.7341 28.251 91.7341 35.339V55.694C91.7341 56.7845 92.3248 57.6023 93.6424 58.193C94.8237 58.6474 94.8237 59.5561 94.8237 60.5557Z"></path><path class="Logo_path__1200m Logo_animatedPath__3Xs-O" d="M139.305 60.0562V61.9645C139.305 62.9641 138.487 63.8728 137.397 63.8728H123.948C122.857 63.8728 122.221 63.055 122.221 62.1463V60.556C122.221 59.5564 122.221 58.6477 123.448 58.1479C124.766 57.5573 125.356 56.7394 125.356 55.649V37.6111C125.356 33.7037 122.63 31.6136 119.768 31.6136C114.952 31.6136 112.362 36.5207 112.362 41.0188V55.649C112.362 56.7394 112.953 57.5573 114.27 58.1479C115.497 58.6477 115.497 59.5564 115.497 60.556V62.1463C115.497 63.055 114.815 63.8728 113.77 63.8728H100.231C99.1401 63.8728 98.3223 62.9641 98.3223 61.9645V60.0562C98.3223 58.8749 98.9129 58.3297 100.049 57.6481C101.23 56.9666 102.457 56.2396 102.457 54.4677V31.7045C102.457 31.2956 102.275 30.8867 101.866 30.5232L99.958 29.1147C98.7312 28.206 98.7312 26.3885 100.14 25.7979L110.454 21.7087C111.544 21.2998 112.362 22.5265 112.362 23.5261V29.8416C114.088 26.2068 117.678 21.9359 123.494 21.9359C131.717 21.9359 135.125 29.4782 135.125 35.2485V54.4677C135.125 56.1942 136.352 56.9666 137.533 57.6481C138.714 58.3297 139.305 58.8749 139.305 60.0562Z"></path><path class="Logo_path__1200m Logo_animatedPath__3Xs-O" d="M179.425 60.0557V61.964C179.425 62.9636 178.607 63.8723 177.516 63.8723H160.387C151.573 63.8723 141.168 58.1474 141.168 42.4268C141.168 30.6135 147.302 21.9808 155.026 21.9808C161.114 21.9808 163.84 25.8883 165.34 28.6144V15.0746C165.34 14.6657 165.158 14.2568 164.749 13.8933L162.841 12.4848C161.614 11.5761 161.614 9.75867 163.022 9.168L173.336 5.07881C174.427 4.66989 175.245 5.89665 175.245 6.89623V54.4217C175.245 56.1483 176.471 56.9207 177.653 57.6022C178.834 58.2837 179.425 58.8744 179.425 60.0557ZM165.385 39.6098C165.385 36.293 162.295 31.0679 158.797 31.0679C155.98 31.0679 151.391 33.2488 151.391 42.4722C151.391 53.0132 157.616 57.2842 163.022 57.2842C164.34 57.2842 165.34 56.0574 165.34 54.6035V39.6098H165.385Z"></path><path class="Logo_path__1200m Logo_animatedPath__3Xs-O" d="M191.965 42.6546C191.965 31.114 199.462 21.9814 209.185 21.9814C218.817 21.9814 227.041 31.3866 227.041 42.9272C227.041 54.4678 219.135 64.2819 209.503 64.2819C199.78 64.2819 191.965 54.8767 191.965 42.6546ZM207.186 29.9327C203.097 29.9327 200.143 33.2495 200.143 39.0652C200.143 47.1073 206.731 56.1943 212.047 56.1943C216.046 56.1943 218.272 52.5595 218.272 46.562C218.227 39.6104 213.001 29.9327 207.186 29.9327Z"></path><path class="Logo_path__1200m Logo_animatedPath__3Xs-O" d="M255.122 9.98617C255.122 13.7119 251.623 16.7106 248.806 16.7106C244.99 16.7106 243.49 13.3938 240.491 13.3938C238.583 13.3938 237.584 14.7115 237.584 16.2108C237.584 19.3913 241.4 22.2992 245.126 22.2992H245.853C246.762 22.2992 247.534 23.0262 247.534 23.9803V26.8882C247.534 27.7969 246.807 28.5693 245.853 28.5693H243.036V54.5129C243.036 56.2395 244.263 57.0119 245.444 57.6934C246.625 58.375 247.171 58.9202 247.171 60.1015V62.0098C247.171 63.0094 246.353 63.9181 245.262 63.9181H230.905C229.814 63.9181 228.996 63.0094 228.996 62.0098V60.1015C228.996 58.9202 229.587 58.375 230.723 57.6934C231.859 57.0119 233.131 56.2849 233.131 54.5129V28.5693H230.314C229.405 28.5693 228.633 27.8423 228.633 26.8882V23.9803C228.633 23.0716 229.36 22.2992 230.314 22.2992H233.949C230.95 20.0728 229.632 17.3922 229.632 14.2571C229.632 7.35091 234.221 4.125 239.038 4.125C244.172 4.125 245.444 8.03245 249.261 8.03245C250.487 8.03245 251.941 7.62353 252.668 6.44221C252.986 5.76068 253.395 5.62437 253.849 6.12416C254.804 7.16917 255.122 8.25962 255.122 9.98617Z"></path><path class="Logo_path__1200m Logo_animatedPath__3Xs-O" d="M339.176 71.824C339.176 79.6389 332.861 85.0457 323.956 85.0457C312.052 85.0457 304.237 75.1408 297.012 60.6923C293.832 54.4676 289.606 47.1525 284.2 44.5627C283.609 44.3355 283.291 43.7449 283.291 43.1542V41.3368C283.291 40.837 283.518 40.11 284.018 40.11C290.651 40.11 296.922 31.2955 296.922 25.6615C296.922 19.5732 292.333 14.03 286.108 14.03H282.518C281.61 14.03 280.837 14.757 280.837 15.7112V53.2863C280.837 55.2855 282.246 56.1033 283.563 56.8757C284.881 57.6027 285.563 58.2842 285.563 59.6018V61.7827C285.563 62.8732 284.563 63.9636 283.382 63.9636H266.525C265.298 63.9636 264.299 62.9641 264.299 61.7827V59.5564C264.299 58.2388 264.98 57.5572 266.298 56.8303C267.616 56.0124 269.024 55.1491 269.024 53.1954V16.3927C269.024 14.3935 267.616 13.5757 266.298 12.7579C264.98 12.0309 264.299 11.3494 264.299 10.0317V7.85083C264.299 6.66951 265.298 5.66992 266.525 5.66992H288.97C301.011 5.66992 309.189 14.8933 309.189 24.9346C309.189 34.3397 300.284 39.9737 292.56 42.1546C296.558 43.3814 300.102 48.2429 303.192 52.5593C311.506 64.0091 319.23 71.9148 327.636 71.9148C331.725 71.9148 334.042 70.5972 336.178 67.7802C336.678 67.1895 337.586 67.1895 337.995 67.8711C338.858 69.0978 339.176 70.4155 339.176 71.824Z"></path><path class="Logo_path__1200m Logo_animatedPath__3Xs-O" d="M330.953 60.0562V61.9645C330.953 62.9641 330.135 63.8728 329.044 63.8728H316.413C315.323 63.8728 314.505 62.9641 314.505 61.9645V60.0562C314.505 58.8749 314.687 58.3297 315.823 57.6481C316.731 57.0575 316.913 56.4668 316.913 55.4218V31.7499C316.913 31.341 316.731 30.9321 316.322 30.5686L314.414 29.1601C313.187 28.2514 313.187 26.434 314.596 25.8433L324.91 21.7541C326 21.3452 326.818 22.572 326.818 23.5715V54.4677C326.818 56.1942 328.045 56.9666 329.226 57.6481C330.362 58.2842 330.953 58.8749 330.953 60.0562ZM313.733 11.9855C313.733 8.48696 316.731 5.5791 320.457 5.5791C324.092 5.5791 327.091 8.48696 327.091 11.9855C327.091 15.5749 324.092 18.4828 320.457 18.4828C316.731 18.4828 313.733 15.5749 313.733 11.9855Z"></path><path class="Logo_path__1200m Logo_animatedPath__3Xs-O" d="M433.501 43.0171C433.501 63.6448 416.78 80.1833 396.107 80.1833H343.084C342.357 80.1833 341.857 79.5018 341.994 78.7748L342.675 76.3668C342.993 75.14 344.084 74.2767 345.401 74.2767H391.2C408.647 74.2767 422.687 60.4643 422.687 43.0171C422.687 25.5699 408.647 11.6212 391.2 11.6212H364.938C366.847 14.3473 367.528 17.6187 367.528 21.3444V54.5123C367.528 56.2388 368.755 57.0113 369.936 57.6928C371.118 58.3743 371.663 58.9195 371.663 60.1009V62.0092C371.663 63.0087 370.845 63.9174 369.755 63.9174H352.625C343.811 63.9174 333.406 58.1926 333.406 42.4719C333.406 30.6587 339.54 22.0259 347.264 22.0259C353.352 22.0259 356.079 25.9334 357.578 28.6595V18.8454C357.578 15.0289 356.669 11.6212 354.17 11.6212H345.038C340.949 11.6212 336.814 9.71292 336.814 6.30526C336.814 2.80672 340.949 0.898438 346.446 0.898438C351.58 0.898438 356.669 2.57955 360.486 5.7146H396.062C416.78 5.66916 433.501 22.3894 433.501 43.0171ZM357.623 39.6094C357.623 36.2927 354.534 31.0676 351.035 31.0676C348.218 31.0676 343.629 33.2485 343.629 42.4719C343.629 53.0129 349.854 57.2839 355.261 57.2839C356.578 57.2839 357.578 56.0571 357.578 54.6032V39.6094H357.623Z"></path><path class="Logo_path__1200m Logo_animatedPath__3Xs-O" d="M410.237 49.2427C410.237 56.467 402.922 64.2819 392.972 64.2819C383.249 64.2819 373.525 54.8767 373.525 42.6546C373.525 28.7968 381.84 21.9814 391.563 21.9814C398.379 21.9814 406.693 27.4791 406.693 33.7947C406.693 36.5208 405.966 38.6108 403.604 40.1102L386.565 50.7421C388.746 53.8317 391.7 55.9672 395.107 55.9672C399.923 55.9672 402.922 50.8784 402.922 46.0622C405.148 45.0627 410.237 46.8346 410.237 49.2427ZM382.885 39.6104C382.885 41.2915 383.112 43.0181 383.703 44.7446L394.653 37.4295C395.38 36.9297 395.834 36.2028 395.834 35.3395C395.834 32.9314 392.745 30.2507 389.337 30.2507C385.793 30.2961 382.885 33.0223 382.885 39.6104Z"></path></svg>